<svg width="165" height="24" viewBox="0 0 165 24" fill="none" xmlns="http://www.w3.org/2000/svg">
<path d="M3.18072 5.16867H0.39759H0V0H19.4819V5.16867H16.6988V2.78313H11.5301V21.0723H13.5181V23.8554H5.96386V21.0723H8.3494V2.78313H3.18072V5.16867Z" fill="#949494"/>
<path d="M47.3125 23.8555H40.9512V21.0723H42.9395L41.3486 17.4941H29.0234L26.2402 23.8555H21.8672V20.6748H24.2529L33.7949 0H36.5781L47.3125 23.8555ZM30.2168 14.7109H39.7588L34.9883 3.97656L30.2168 14.7109Z" fill="#949494"/>
<path d="M91.843 23.8555H85.4817V21.0723H87.47L85.8792 17.4941H73.554L70.7708 23.8555H66.3977V20.6748H68.7834L78.3254 0H81.1086L91.843 23.8555ZM74.7473 14.7109H84.2893L79.5178 3.97656L74.7473 14.7109Z" fill="#949494"/>
<path d="M165 23.8555H158.638V21.0723H160.626L159.036 17.4941H146.71L143.927 23.8555H139.554V20.6748H141.94L151.482 0H154.265L165 23.8555ZM147.904 14.7109H157.446L152.674 3.97656L147.904 14.7109Z" fill="#949494"/>
<path d="M44.53 5.16867V0H64.012V5.16867H61.2288V2.78313H56.0602V21.0723H58.0481V23.8554H50.4939V21.0723H52.8794V2.78313H47.3132V5.16867H44.53Z" fill="#949494"/>
<path d="M106.277 0C109.583 0.460504 111.156 1.32498 113.314 4.23926C114.425 7.03689 114.442 8.60427 113.711 11.3965C111.831 14.5766 110.403 15.5614 106.554 16.3008L98.6028 16.292V23.3242H93.4338V20.9385H95.8196V2.64941H93.4338V0H106.277ZM107.747 3.18066C105.362 2.38548 99.3977 3.18066 99.3977 3.18066V13.5176C99.3977 13.5176 104.964 13.9154 107.747 13.1201C110.53 12.3249 111.104 11.0037 111.325 8.34961C111.394 5.39499 110.133 3.97586 107.747 3.18066Z" fill="#949494"/>
<path d="M118.084 2.78313V0H123.253V10.3373H127.229V7.55422C130.685 7.56554 131.884 6.58072 132.397 2.78313H130.012V0H135.181V3.57831C134.62 7.90387 133.364 9.23045 130.012 10.3373V13.1205C133.559 14.1327 134.831 15.8435 135.976 20.6747V23.8554H131.205V20.6747H133.193C132.112 16.7953 130.792 15.8739 127.229 16.3012V13.1205H123.253V23.8554H118.084V20.6747H120.072V2.78313H118.084Z" fill="#949494"/>
</svg>
