<svg xmlns="http://www.w3.org/2000/svg" width="960" height="600" viewBox="0 0 960 600" fill="none">
  <rect width="960" height="600" rx="24" fill="#15131A"/>
  <rect x="44" y="44" width="872" height="88" rx="16" fill="#211D2A"/>
  <rect x="78" y="74" width="260" height="26" rx="13" fill="#F4F1FF"/>
  <rect x="44" y="164" width="420" height="392" rx="20" fill="#1E1A27"/>
  <rect x="74" y="196" width="360" height="20" rx="10" fill="#8F89AE"/>
  <rect x="74" y="230" width="330" height="20" rx="10" fill="#6D6888"/>
  <rect x="74" y="278" width="220" height="36" rx="18" fill="#7A6DFF"/>
  <rect x="496" y="164" width="420" height="186" rx="20" fill="#1E1A27"/>
  <rect x="526" y="196" width="170" height="24" rx="12" fill="#F4F1FF"/>
  <rect x="526" y="236" width="220" height="14" rx="7" fill="#8D87AB"/>
  <rect x="526" y="260" width="260" height="14" rx="7" fill="#6F6A8A"/>
  <rect x="496" y="370" width="420" height="186" rx="20" fill="#1E1A27"/>
  <rect x="526" y="402" width="130" height="24" rx="12" fill="#BDB6E6"/>
  <rect x="526" y="442" width="340" height="14" rx="7" fill="#756F94"/>
</svg>
