<svg xmlns="http://www.w3.org/2000/svg" width="960" height="600" viewBox="0 0 960 600" fill="none">
  <rect width="960" height="600" rx="24" fill="#130F19"/>
  <rect x="38" y="38" width="884" height="116" rx="18" fill="#211B2D"/>
  <rect x="70" y="74" width="420" height="30" rx="15" fill="#F5F3FF"/>
  <rect x="70" y="116" width="280" height="16" rx="8" fill="#9D97BD"/>
  <rect x="38" y="182" width="280" height="180" rx="18" fill="#1F192A"/>
  <rect x="338" y="182" width="280" height="180" rx="18" fill="#1F192A"/>
  <rect x="638" y="182" width="284" height="180" rx="18" fill="#1F192A"/>
  <rect x="70" y="214" width="210" height="18" rx="9" fill="#B8B2DA"/>
  <rect x="370" y="214" width="210" height="18" rx="9" fill="#B8B2DA"/>
  <rect x="670" y="214" width="210" height="18" rx="9" fill="#B8B2DA"/>
  <rect x="70" y="246" width="150" height="12" rx="6" fill="#7C769A"/>
  <rect x="370" y="246" width="170" height="12" rx="6" fill="#7C769A"/>
  <rect x="670" y="246" width="190" height="12" rx="6" fill="#7C769A"/>
  <rect x="38" y="390" width="884" height="170" rx="18" fill="#1B1625"/>
  <rect x="70" y="422" width="220" height="34" rx="17" fill="#7A6DFF"/>
  <rect x="70" y="474" width="760" height="12" rx="6" fill="#625D80"/>
</svg>
